name Visual3d_SIMM_input.mot
datacolumns 42
datarows 17
range 0.690000 0.850000
endheader
time	pelvis_tx	pelvis_ty	pelvis_tz	pelvis_tilt	pelvis_list	pelvis_rotation	hip_flexion_r	hip_adduction_r	hip_rotation_r	knee_angle_r	ankle_angle_r	subtalar_angle_r	mtp_angle_r	hip_flexion_l	hip_adduction_l	hip_rotation_l	knee_angle_l	ankle_angle_l	subtalar_angle_l	mtp_angle_l	lumbar_extension	lumbar_bending	lumbar_rotation	ground_force_vx	ground_force_vy	ground_force_vz	ground_force_px	ground_force_py	ground_force_pz	ground_force_vx	ground_force_vy	ground_force_vz	ground_force_px	ground_force_py	ground_force_pz	ground_torque_x	ground_torque_y	ground_torque_z	ground_torque_x	ground_torque_y	ground_torque_z
0.690000	-0.459205	0.671065	-0.238455	-16.471048	-4.251794	7.056190	45.496460	1.103429	-8.609646	-21.074801	1.362895	-0.000000	0.000000	-3.875544	-2.798166	1.951770	-23.496119	7.976768	-0.000000	0.000000	26.744629	1.535496	-12.548704	-42.951092	190.153564	-0.407485	-0.328153	-0.003511	-0.206019	0.000000	0.000000	0.000000	0.000000	0.000000	0.000000	0.000734	-0.659146	0.001413	0.000000	0.000000	0.000000
0.700000	-0.446115	0.671398	-0.237674	-16.082115	-4.743242	6.862792	45.103462	1.846365	-8.667911	-23.059265	1.454593	-0.000000	0.000000	-3.424346	-3.452540	1.775680	-26.015533	4.418155	-0.000000	0.000000	26.541656	2.243992	-12.878259	-48.625450	214.522659	-2.754704	-0.324674	-0.003751	-0.205013	0.000000	0.000000	0.000000	0.000000	0.000000	0.000000	0.000793	-0.712547	0.001528	0.000000	0.000000	0.000000
0.710000	-0.433166	0.671805	-0.236858	-15.706210	-5.244449	6.697661	44.691195	2.630182	-8.622164	-24.973105	1.666168	-0.000000	0.000000	-2.814473	-4.110906	1.610935	-28.797789	0.832730	-0.000000	0.000000	26.332220	2.944162	-13.201990	-53.253529	237.975128	-5.261077	-0.321016	-0.003811	-0.204200	0.000000	0.000000	0.000000	0.000000	0.000000	0.000000	0.000842	-0.756260	0.001622	0.000000	0.000000	0.000000
0.720000	-0.420505	0.672310	-0.236018	-15.366146	-5.724421	6.575995	44.239648	3.422156	-8.437220	-26.725991	2.047666	-0.000000	0.000000	-1.956980	-4.729496	1.480580	-31.864482	-2.661800	-0.000000	0.000000	26.124260	3.593139	-13.492069	-56.531498	260.098114	-7.708516	-0.317452	-0.003732	-0.203510	0.000000	0.000000	0.000000	0.000000	0.000000	0.000000	0.000886	-0.795572	0.001706	0.000000	0.000000	0.000000
0.730000	-0.408232	0.672936	-0.235185	-15.076461	-6.157051	6.514064	43.730235	4.181248	-8.138169	-28.251843	2.617282	-0.000000	0.000000	-0.801606	-5.266283	1.423332	-35.197829	-5.980915	-0.000000	0.000000	25.924459	4.157348	-13.732001	-58.216343	279.876617	-9.903879	-0.314199	-0.003577	-0.202922	0.000000	0.000000	0.000000	0.000000	0.000000	0.000000	0.000929	-0.834306	0.001789	0.000000	0.000000	0.000000
0.740000	-0.396399	0.673706	-0.234402	-14.846316	-6.524881	6.524615	43.150232	4.869146	-7.780424	-29.508640	3.363300	-0.000000	0.000000	0.667888	-5.687750	1.473430	-38.749108	-9.048206	-0.000000	0.000000	25.741031	4.616170	-13.913546	-58.213951	296.139069	-11.707199	-0.311381	-0.003404	-0.202444	0.000000	0.000000	0.000000	0.000000	0.000000	0.000000	0.000970	-0.871760	0.001869	0.000000	0.000000	0.000000
0.750000	-0.385017	0.674632	-0.233706	-14.680753	-6.814319	6.614482	42.495145	5.452010	-7.421130	-30.479839	4.252993	-0.000000	0.000000	2.439788	-5.965924	1.649380	-42.449496	-11.778107	-0.000000	0.000000	25.582368	4.957490	-14.031581	-56.611542	308.040710	-13.019777	-0.309036	-0.003254	-0.202093	0.000000	0.000000	0.000000	0.000000	0.000000	0.000000	0.001006	-0.903733	0.001938	0.000000	0.000000	0.000000
0.760000	-0.374066	0.675731	-0.233125	-14.576640	-7.010498	6.780552	41.762949	5.903173	-7.098777	-31.172116	5.242225	-0.000000	0.000000	4.473668	-6.076332	1.945757	-46.215853	-14.076474	-0.000000	0.000000	25.450649	5.173461	-14.077513	-53.703236	315.081482	-13.769248	-0.307114	-0.003145	-0.201884	0.000000	0.000000	0.000000	0.000000	0.000000	0.000000	0.001032	-0.927341	0.001988	0.000000	0.000000	0.000000
0.770000	-0.363495	0.677021	-0.232661	-14.520847	-7.099596	7.005595	40.947998	6.211518	-6.823107	-31.606646	6.281840	-0.000000	0.000000	6.703555	-6.004888	2.326605	-49.956898	-15.850694	-0.000000	0.000000	25.339411	5.262350	-14.035699	-49.883736	317.160645	-13.947778	-0.305499	-0.003076	-0.201816	0.000000	0.000000	0.000000	0.000000	0.000000	0.000000	0.001048	-0.941483	0.002019	0.000000	0.000000	0.000000
0.780000	-0.353228	0.678517	-0.232292	-14.497432	-7.072577	7.259346	40.045023	6.383798	-6.576878	-31.810718	7.322423	-0.000000	0.000000	9.053928	-5.752753	2.730718	-53.582585	-17.022447	-0.000000	0.000000	25.240170	5.229644	-13.885848	-45.539749	314.607056	-13.630751	-0.304040	-0.003033	-0.201859	0.000000	0.000000	0.000000	0.000000	0.000000	0.000000	0.001052	-0.944963	0.002026	0.000000	0.000000	0.000000
0.790000	-0.343184	0.680220	-0.231976	-14.494991	-6.926011	7.505954	39.054977	6.437525	-6.327623	-31.813146	8.319580	-0.000000	0.000000	11.456466	-5.334111	3.088699	-57.012327	-17.540643	-0.000000	0.000000	25.148886	5.085831	-13.610422	-40.999008	308.071655	-12.949837	-0.302570	-0.002996	-0.201965	0.000000	0.000000	0.000000	0.000000	0.000000	0.000000	0.001044	-0.937438	0.002010	0.000000	0.000000	0.000000
0.800000	-0.333284	0.682118	-0.231673	-14.506569	-6.662129	7.711425	37.983720	6.393706	-6.041574	-31.641121	9.238582	-0.000000	0.000000	13.855948	-4.773505	3.337576	-60.178625	-17.392243	-0.000000	0.000000	25.065556	4.844891	-13.200550	-36.525322	298.385681	-12.059353	-0.300924	-0.002949	-0.202086	0.000000	0.000000	0.000000	0.000000	0.000000	0.000000	0.001023	-0.919363	0.001971	0.000000	0.000000	0.000000
0.810000	-0.323461	0.684187	-0.231343	-14.527671	-6.286927	7.846351	36.839421	6.272053	-5.691425	-31.319197	10.057325	-0.000000	0.000000	16.210178	-4.102062	3.426601	-63.027005	-16.608401	-0.000000	0.000000	24.991485	4.522296	-12.654968	-32.317360	286.455231	-11.107275	-0.298956	-0.002881	-0.202184	0.000000	0.000000	0.000000	0.000000	0.000000	0.000000	0.000991	-0.890616	0.001910	0.000000	0.000000	0.000000
0.820000	-0.313667	0.686391	-0.230953	-14.556417	-5.807412	7.886715	35.632957	6.087321	-5.259350	-30.869805	10.766968	-0.000000	0.000000	18.490312	-3.352220	3.319793	-65.514847	-15.264213	-0.000000	0.000000	24.928582	4.132261	-11.976861	-28.495453	273.198975	-10.195338	-0.296554	-0.002787	-0.202237	0.000000	0.000000	0.000000	0.000000	0.000000	0.000000	0.000947	-0.850335	0.001823	0.000000	0.000000	0.000000
0.830000	-0.303872	0.688684	-0.230474	-14.592597	-5.231741	7.814744	34.376830	5.849208	-4.738865	-30.312547	11.369818	-0.000000	0.000000	20.679386	-2.556207	2.996739	-67.610403	-13.472080	-0.000000	0.000000	24.878636	3.687700	-11.173304	-25.096109	259.496826	-9.362682	-0.293664	-0.002672	-0.202237	0.000000	0.000000	0.000000	0.000000	0.000000	0.000000	0.000887	-0.796950	0.001709	0.000000	0.000000	0.000000
0.840000	-0.294061	0.691020	-0.229887	-14.634819	-4.571295	7.619442	33.081847	5.564924	-4.136124	-29.663173	11.875588	-0.000000	0.000000	22.767891	-1.747342	2.451417	-69.291743	-11.369179	-0.000000	0.000000	24.841553	3.202406	-10.256770	-22.085993	246.146332	-8.598589	-0.290303	-0.002544	-0.202184	0.000000	0.000000	0.000000	0.000000	0.000000	0.000000	0.000811	-0.728074	0.001561	0.000000	0.000000	0.000000
0.850000	-0.284229	0.693349	-0.229185	-14.679605	-3.841535	7.297816	31.756480	5.239677	-3.471389	-28.934563	12.298264	-0.000000	0.000000	24.750744	-0.958898	1.691692	-70.545650	-9.100889	-0.000000	0.000000	24.815442	2.691890	-9.247319	-19.393015	233.783142	-7.871231	-0.286566	-0.002412	-0.202088	0.000000	0.000000	0.000000	0.000000	0.000000	0.000000	0.000715	-0.641968	0.001377	0.000000	0.000000	0.000000
